<?xml version="1.0" standalone="no"?>
<!DOCTYPE svg PUBLIC "-//W3C//DTD SVG 20010904//EN"
 "http://www.w3.org/TR/2001/REC-SVG-20010904/DTD/svg10.dtd">
<svg version="1.0" xmlns="http://www.w3.org/2000/svg"
 width="512.000000pt" height="512.000000pt" viewBox="0 0 512.000000 512.000000"
 preserveAspectRatio="xMidYMid meet">
<metadata>
Created by potrace 1.14, written by Peter Selinger 2001-2017
</metadata>
<g transform="translate(0.000000,512.000000) scale(0.100000,-0.100000)"
fill="#000000" stroke="none">
<path d="M377 5105 c-173 -47 -316 -193 -362 -366 -22 -81 -22 -4277 0 -4358
46 -176 190 -320 366 -366 81 -22 4277 -22 4358 0 176 46 320 190 366 366 22
81 22 4277 0 4358 -46 176 -190 320 -366 366 -77 21 -4287 21 -4362 0z m2298
-1026 c363 -44 616 -200 740 -454 72 -147 89 -236 89 -460 0 -205 -11 -275
-68 -414 -67 -167 -227 -336 -399 -423 -46 -23 -57 -33 -52 -46 3 -9 157 -295
341 -635 184 -340 334 -621 334 -623 0 -2 -112 -4 -249 -4 l-248 0 -311 598
-311 597 -325 3 -326 2 0 -600 0 -600 -215 0 -215 0 0 1535 0 1535 563 0 c347
0 596 -4 652 -11z"/>
<path d="M1890 3159 l0 -571 363 4 c325 4 369 6 432 25 204 58 346 204 385
396 16 81 14 231 -5 312 -41 180 -173 317 -355 369 -96 27 -226 36 -527 36
l-293 0 0 -571z"/>
</g>
</svg>
